<?xml version="1.0" encoding="UTF-8" standalone="no"?>
<!-- Created with Inkscape (http://www.inkscape.org/) -->

<svg
   xmlns:dc="http://purl.org/dc/elements/1.1/"
   xmlns:cc="http://creativecommons.org/ns#"
   xmlns:rdf="http://www.w3.org/1999/02/22-rdf-syntax-ns#"
   xmlns:svg="http://www.w3.org/2000/svg"
   xmlns="http://www.w3.org/2000/svg"
   xmlns:sodipodi="http://sodipodi.sourceforge.net/DTD/sodipodi-0.dtd"
   xmlns:inkscape="http://www.inkscape.org/namespaces/inkscape"
   width="12.107333mm"
   height="11.599334mm"
   viewBox="0 0 42.899999 41.100001"
   id="svg2"
   version="1.1"
   inkscape:version="0.91 r13725"
   sodipodi:docname="audio-icon-only.svg">
  <defs
     id="defs4" />
  <sodipodi:namedview
     id="base"
     pagecolor="#007d8e"
     bordercolor="#666666"
     borderopacity="1.0"
     inkscape:pageopacity="1"
     inkscape:pageshadow="2"
     inkscape:zoom="3.0316923"
     inkscape:cx="103.11255"
     inkscape:cy="-41.643862"
     inkscape:document-units="px"
     inkscape:current-layer="g3361"
     showgrid="false"
     fit-margin-top="0"
     fit-margin-left="0"
     fit-margin-right="0"
     fit-margin-bottom="0"
     inkscape:window-width="1920"
     inkscape:window-height="1027"
     inkscape:window-x="-8"
     inkscape:window-y="-8"
     inkscape:window-maximized="1" />
  <metadata
     id="metadata7">
    <rdf:RDF>
      <cc:Work
         rdf:about="">
        <dc:format>image/svg+xml</dc:format>
        <dc:type
           rdf:resource="http://purl.org/dc/dcmitype/StillImage" />
        <dc:title></dc:title>
      </cc:Work>
    </rdf:RDF>
  </metadata>
  <g
     inkscape:label="Layer 1"
     inkscape:groupmode="layer"
     id="layer1"
     transform="translate(-187.07143,-189.90506)">
    <g
       id="g3361"
       transform="translate(183.57143,185.50506)">
      <path
         id="path3353"
         d="M 14.2,33.9 25.6,45 c 0.3,0.3 0.8,0.5 1.3,0.5 1,0 1.8,-0.8 1.8,-1.8 l 0,-37.5 c 0,-1 -0.8,-1.8 -1.8,-1.8 -0.5,0 -1,0.2 -1.3,0.5 l -11.4,11.2 -7.1,0 c -2,0 -3.6,1.6 -3.6,3.6 l 0,10.7 c 0,2 1.6,3.6 3.6,3.6 l 7.1,0 z M 38.6,14 c -0.9,0.8 -0.9,2.2 0,3.1 2.1,2.1 3.5,5.1 3.5,8.3 0,3.2 -1.3,6.2 -3.5,8.3 -0.9,0.9 -0.9,2.2 0,3.1 0.8,0.9 2.2,0.9 3.1,0 2.9,-2.9 4.7,-7 4.7,-11.4 0,-4.5 -1.8,-8.5 -4.7,-11.4 l 0,0 c -0.8,-0.8 -2.2,-0.8 -3.1,0 z m -1.8,17.9 c 1.7,-1.7 2.7,-4 2.7,-6.5 0,-2.5 -1,-4.8 -2.7,-6.5 -0.9,-0.9 -2.2,-0.9 -3.1,0 -0.9,0.9 -0.9,2.2 0,3.1 0.9,0.9 1.4,2.1 1.4,3.4 0,1.3 -0.5,2.5 -1.4,3.4 -0.9,0.9 -0.9,2.2 0,3.1 0.8,0.9 2.2,0.9 3.1,0 z"
         inkscape:connector-curvature="0"
         style="clip-rule:evenodd;fill:#ffffff;fill-rule:evenodd" />
    </g>
  </g>
</svg>
